<?xml version="1.0" encoding="UTF-8"?>
<svg width="640" height="320" viewBox="0 0 640 320" xmlns="http://www.w3.org/2000/svg" role="img" aria-labelledby="title desc">
  <title>Noir Hound Digital - Placeholder Logo</title>
  <desc>Minimal noir hound silhouette and wordmark placeholder</desc>
  <defs>
    <linearGradient id="g" x1="0" x2="0" y1="0" y2="1">
      <stop offset="0%" stop-color="#ffffff" stop-opacity="0.95"/>
      <stop offset="100%" stop-color="#ffffff" stop-opacity="0.65"/>
    </linearGradient>
  </defs>
  <rect width="100%" height="100%" fill="none"/>
  <!-- Hound silhouette -->
  <g transform="translate(50,40)">
    <path d="M0 140 C 40 110, 80 100, 120 110 C 160 120, 210 120, 240 100 C 260 90, 280 80, 300 82 C 280 100, 270 120, 265 135 C 260 150, 260 160, 270 170 C 210 170, 160 160, 120 150 C 90 142, 50 144, 20 150 Z" fill="url(#g)"/>
    <circle cx="286" cy="88" r="6" fill="#ffffff"/>
  </g>
  <!-- Wordmark -->
  <g transform="translate(50,260)">
    <text x="0" y="0" font-family="'Special Elite', 'Courier New', monospace" font-size="42" fill="#ffffff" letter-spacing="2">NOIR HOUND DIGITAL</text>
  </g>
</svg>
