<?xml version="1.0" encoding="UTF-8"?><svg id="Layer_2" xmlns="http://www.w3.org/2000/svg" viewBox="0 0 690.3913 689.9689"><g id="Layer_1-2"><path d="M689.9373,594.1673c-8.1636-29.3516-5.0718-63.5576-5.6694-92.248-.0112-3.6113-12.3403-18.7295-13.2002-20.8291-9.4691-29.4813-16.6743-63.0426-15.3616-94.3699-.8251-16.4836-.6205-41.9964-9.2981-58.7211-16.0099-30.7122-36.2858-68.3744-75.0296-72.2798-11.9256-.888-28.4781-2.974-37.2708-6.3603-1.2053.531-.7909,4.7114-1.8201,6.4505.0004.0003-1.6964,5.8606-1.6964,5.8606-.1089.375-.5791.4971-.8521.2168-1.915-1.9639-7.7012-7.9453-7.8511-8.6377-4.1201-5.3799-4.0103-8.3096-15.54-16.6504-6.2815-4.5115-5.7745-3.0695-4.7384-.6985,2.1198,5.2034.8828,13.1991-.2842,17.6878-.5413,1.9309-4.2991-4.742-4.7216-4.8327-4.3756-2.221-16.597-35.3568-20.4209-22.088.0068.0237-3.4386,9.1903-3.436,9.2162-.6002,1.6013-3.6416-3.7559-4.0687-3.9076-9.0587-9.0444-13.9452-21.986-18.3414-33.4772-1.9389-2.9678-5.2275-9.0107-5.1091-13.7799-.0293-2.4106-6.2023-5.4152-9.2261-5.8176-12.2585-13.894-20.6317-32.8643-31.1445-48.9889-15.0994-35.019-20.6655-9.1735-11.3788-47.2458,1.5087-7.0805,1.0636-12.9427-2.1989-19.1494-1.9714-7.8778,1.0328-11.7246-1.6487-17.9281-5.8477-10.4219-4.155-33.0859-11.7329-43.5898-5.3661-9.4805-8.2341,17.49-5.9505,23.7894,3.0704,10.7907-11.9796,22.0211-11.8495,31.5807.1597,7.1992-10.8779,20.2598-17.582,10.2764-2.6597-5.8141-5.8922-16.0436-11.8224-18.9822-2.0624-7.3375,2.1558-55.4124-7.8962-44.8837-.4625,19.6426-1.9917,34.7793-5.9887,54.3871.3139,18.5918,1.4064,23.2805-14.2688,36.2035-4.2106,4.0917-7.0313,8.339-2.6929,13.5747-.823,4.2833,1.1259,10.2038-.0057,13.4038-6.8725,5.2998-20.0448,14.5703-23.6784,17.3867-1.0044.2193-3.0415.6536-6.0954,4.3632-3.0997,4.0206-.4996,2.8204.3403,6.2902.835,3.4492.1089,2.7295,2.8306,5.0283,6.4722,6.581,4.4326,12.6043,13.1997,18.3018,10.2834,7.0267,22.7814,6.4518,33.1215,1.0185,3.6718-1.9345,9.0556-2.1935,11.9564.6836,7.3518,10.6875,18.2244,26.669,22.8374,38.7989,1.9832,10.0226-.6374,21.0895,7.6353,30.0121-.61,20.7441-6.1005,45.7544-.4574,67.0474,2.63,20.1374,11.2957,40.925,19.7762,58.624,4.6868,12.0605,11.6848,13.3564,15.4631,31.7236,2.726,37.9254,9.4678,60.5077,18.712,97.0403,2.3632,21.8097,16.2976,92.8577-5.7801,100.2164-13.6629-2.664-18.42,6.0186-20.0743,10.6886-11.4749,2.6465-27.8086,6.4102-28.4141,6.5293-43.627,16.5413-86.4413,1.7232-131.0702,9.6644-24.9022,5.7628-48.9457,15.4227-74.6993,17.5512-19.1228,2.5686-38.8337,4.8665-58.2913,4.2742-12.8733.162-101.4281-7.712-96.9921,8.8359,10.1617,11.637,27.5974,19.9033,41.805,25.6895,18.9045,4.734,39.7258-2.9277,58.4433,2.7974,39.9353,16.3305,64.5514-5.5811,104.2742-5.2704,50.8599-5.1779,109.2458-2.7008,156.1598-1.9137,9.5787.1607,19.1474-.3293,28.6654-1.4183,24.0381-2.7501,48.3084-5.2155,71.8699-10.8732l-.0059-.0068c67.8486-12.6986,146.9467-31.7238,216.5076-52.4883,7.309-2.1792,14.3933-9.7359,12.0569-17.7763ZM352.7223,104.6849c-2.6364,10.9745-23.4114,6.4466-15.5723.6599.0007.0008,12.5984-3.6931,12.5984-3.6931,1.8042-.3867,3.4729,1.2568,2.9739,3.0332ZM427.4276,617.7965c-2.2726.6367-3.8768-2.2175-2.1428-3.8185,4.1822-3.8612,11.1071-8.4327,11.7326-11.3878h.0002c3.1684-11.3801,3.376-22.1407,4.2588-33.6808,6.6711-22.1395-2.4488-32.2001-5.1887-56.8397-2.2593-19.5049,1.9172-39.4385-.1482-58.8125-.2219-20.1461-5.339-40.8921-4.415-63.0518,4.9591-16.9241,25.3201,25.5857,26.2531,31.4746,6.6026,35.7158,16.5984,75.6543,20.1324,113.6641-.0678,17.3329-3.1463,34.7448-7.4963,51.5186,0,0-15.1687.0562-19.5073,18.1138-8.4387,5.6576-17.4501,11.1312-23.4787,12.8201ZM585.4476,573.2298c-3.327,4.6561-2.7409,13.6331-9.6185,16.8307-11.9912,2.7242-18.6317-4.4662-21.0795,12.9238-9.3697,5.2495-21.3744,12.1488-29.9553,13.1673-25.4964,2.6755-46.7394,13.9044-70.4815,19.2248-2.9834.1941-4.1203-3.8424-1.4657-5.217,3.2175-1.666,6.4006-3.3701,9.5573-5.0791.1191.0547.1885.0869.1885.0869,4.8915-2.1092,24.4412-15.4142,31.7424-19.9731,4.65-2.0069,2.0269-15.9869,2.0269-15.9869h-.0002c-6.5842-16.4202,8.4464-50.4281,4.1058-65.1984-1.8548-4.9779-5.5169-22.5155-8.4502-37.3631.6598-33.2304.7881-69.6338-1.448-92.2844,4.1801-2.0083,14.5374-7.8942,22.3382-10.072,5.3117.3452,16.8269-13.2382,17.57-4.6501,5.2103,29.7908-.0895,77.1501,28.2904,96.1208,34.5639,22.687,35.0456,61.3404,26.6797,97.4697ZM660.8589,590.7418c-3.6988,3.1878-10.1799,5.0205-8.8889,11.2272-21.5472,11.9944-40.1535,11.8784-40.855,6.0558-1.9512-2.5072-6.0738.0785-8.8047,1.9413-1.812.8281-12.6923,1.9874-13.8423-.9985.0006-.0005,3.3253-3.3472,3.3253-3.3472,7.167-3.4948,5.6566-9.152,6.7338-15.0814,2.9488-13.2907,4.0392-31.8864,7.9737-44.1969,1.5195-5.5635,8.0273-22.3614,5.139-31.014-4.7002-13.8108-12.5648-27.4035-19.7991-38.9767-3.0331-14.2207-8.3309-36.2028-3.3931-50.4614,3.0335-7.2064,4.1916-19.6111,9.2435-24.5161,5.2981-2.0342,6.0938,6.0692,6.156,11.0095,2.4025,19.295,1.1299,34.5124,8.9429,54.9306,4.4763,8.4181,2.7261,11.5575,8.308,25.5857,4.04,9.7002,3.9297,33.0801,10.2998,31.3701,3.1602-1.4004.9102-4.9404,1.0898-8.3506-.1842-27.7385-17.63-53.849-15.8004-81.9491.7804-16.2608,5.6808,3.8495,7.4606,6.8193,4.21,8.96,9.48,20.9004,14.5698,31.7207,2.7202,5.7598,6.1304,11.1396,9.79,16.3594,4.7686,6.8573,6.4252,20.0048,9.6692,26.1206,6.0327,10.2959,3.6019,35.0951,7.5602,47.0141,2.4306,8.8903.7302,21.0258-4.878,28.7376Z"/><path d="M280.7559,319.4183c.6134.9741.8435,2.1416.7513,3.2891-.4517,5.6255,2.7273,11.0806,3.0964,16.6885.7031,5.667.6533,11.4258,1.3423,17.0942.4807,7.9336,8.2776,21.2119-3.3497,24.1519.1256,1.103.291.667.4169,1.7695,10.8455-.3467,21.4861.7837,32.1519,2.498-.1406-1.082-.4221-2.2314-.5637-3.3149-9.7114-2.6094-7.377-14.8921-8.9561-22.6519-2.2634-10.4937-4.0961-19.6924-5.3002-30.3828,7.7303-11.7881,17.8339-6.4292,20.9565,10.2749,3.528-3.958,8.958-9.9722,13.2572-14.312-7.7964-10.2388-27.1541-15.6592-34.3813-3.0039-.467-3.3701-.4539-4.1973-.9297-7.5762-9.9719-.5859-14.9041-1.0278-24.9097-1.6152.1338,1.0532.0823,1.7246.2153,2.7788,2.6113.8462,4.7822,2.0571,6.2025,4.312Z"/><path d="M130.5103,574.2772c-1.4167-14.7534-2.9445-29.5195-2.0327-44.3516-8.8481-.5957-17.3878.2427-26.0032,2.1401.0356,1.0225-.2422.6104-.2064,1.6318,9.9109,2.6411,6.0983,15.356,7.3329,23.0303.2306,5.4595.2776,10.9277.5204,16.3867.4905,7.9395,6.4034,22.9487-5.9941,23.668.0468,1.0508.6824,1.9111.73,2.96,11.2298-.8916,22.3965-2.2441,33.5945-3.3936-.0692-1.0425.5789-1.4702.5101-2.5132-11.3195-.3452-7.6712-11.9253-8.4515-19.5586Z"/><path d="M249.3277,577.0317c-2.085-18.5464-5.5578-36.8528-7.4711-55.419-8.6562-.2795-17.2347-.2799-25.8935.491.1105.9601.3161,2.6448.4275,3.6049,11.6215.8233,9.1741,27.7003,11.5565,36.8595.5306,8.4201,6.6527,19.4568-4.6373,23.008.1383,1.016.9988.5116,1.1379,1.5272,11.3297-.1498,22.668-.4069,33.9667-1.5673-.16-1.0055-.5969-2.1548-.7549-3.1588-3.2236-.3578-6.9864-2.3889-8.3318-5.3454Z"/><path d="M399.7464,570.7952c-8.8649-2.4355-7.6793-14.6514-9.8085-22.4272-4.2307-10.0957-6.9404-20.3325-7.9961-31.2603-3.5858-10.1064-6.2616-20.2681-7.6643-31.0278-8.8857.2305-13.3069-.9077-22.2964-.5635.1711.8774.6108,1.561.7823,2.4385,9.1078,3.0054,7.0248,16.1509,9.4462,24.2339,1.2319,5.8584,3.2457,11.5171,4.5115,17.3657,1.2659,5.8486,1.9258,11.8638,3.2271,17.7041.7777,7.6685,10.0096,19.9077.3525,24.2607.1371.9141-.0056,1.9336.2001,2.8247,10.1329-2.1748,20.1377-2.4536,30.3746-1.0332-.2546-.9844-.8762-1.5347-1.129-2.5156Z"/><path d="M353.9973,551.8563c-2.924-8.9814-3.2295-19.833-8.896-27.3496-13.9358-13.2324-42.4592-14.3003-48.2472,8.6445,3.0713,1.2026,7.8146-.5278,10.2179,2.5654-2.4316-18.7544,24.0579-21.0693,25.3677-1.998.2069,3.0142-2.968,3.8037-4.3599,5.7764-8.527,6.1528-24.3252,5.4448-28.5667,16.7935-4.3948,25.3853,31.7458,26.3486,39.1855,8.1138,1.1033,16.687,16.4861,10.0322,26.8921,10.4995-.2288-.9824-.2856-3.1533-.5127-4.1328-10.6121-.3682-9.2653-10.6572-11.0808-18.9126ZM320.2348,550.2508c3.0785-2.0479,9.9774-4.9302,13.256-9.0615,1.4698,7.439,2.2111,9.5967,3.7955,17.3696-6.5685,9.9868-30.3491,6.9097-17.0515-8.3081Z"/><path d="M326.2497,385.5448c3.0408.7812,6.3766,2.5557,7.6294,5.5278,1.9355,9.1968,3.4968,14.4038,5.4086,23.4785-20.2101-16.2979-42.416,2.1611-36.6996,24.5498,4.418,22.8311,25.2644,37.6831,46.3154,23.7373.5374,2.4624.2817,3.7544.8225,6.2183,8.8876-.3081,15.7019-2.4253,24.5535-.9771-.2224-.9097-.3788-2.1509-.6003-3.0605-10.4563-1.8867-10.7808-26.9429-13.9749-35.9199-3.512-15.2417-6.0518-30.6294-11.6686-45.2485-8.8412-.0806-12.9454-1.499-22.0206-1.6162.1844.8975.0505,2.415.2346,3.3105ZM342.716,438.7923c1.0148,4.7588,3.8767,9.2666,4.9042,14.0229-.4144,4.2476-4.66,9.9043-9.4673,9.6255-16.5734-1.6704-28.3148-45.2588-8.9156-49.9937,3.6772-.4766,8.1265,4.7773,11.788,11.6899,1.005,4.7612.6758,9.8965,1.6908,14.6553Z"/><path d="M274.5616,468.3553c.1512.9604.2109,1.2437.3622,2.2046,10.4734.1631,20.9647.1118,31.4471-.4951-.1698-.9404-.2269-2.3921-.3965-3.332-3.1271-.5137-6.147-2.2905-7.4633-5.1201-.1044-.1689-.3998.0732-.3998.0732-4.6047-13.6465-3.3347-38.7744-13.8617-47.1123-8.2126-6.3315-24.6779-7.1919-30.11,2.6865-.4269-2.9805-1.2767-4.5405-1.7042-7.5273-9.8083-.0146-14.4648-.3154-24.3518-.3286.1213.9429-.384,1.9399-.2627,2.8828,3.2271.7856,7.5125,2.0229,8.7427,5.144,1.6399,9.6416,2.1042,19.3369,2.1675,29.0625-.0979,8.3467,9.9154,20.1577-3.1536,22.8193.1315.9883.4856,2.8677.6174,3.8564,10.59-1.5029,21.1881-2.1284,31.8704-1.7295-.1477-.9648.0664-2.7251-.0806-3.6904-9.8589-.5264-8.4999-11.4966-10.3358-18.5918-1.2006-9.4175-2.302-18.8687-3.5507-28.2822,14.2112-19.7305,21.4639,12.1035,23.0886,25.0962.2788,7.292,7.5997,19.2256-2.6254,22.3838Z"/><path d="M195.2014,522.9993c3.3157-1.395,6.9747,3.8213,7.1862,8.6348,2.9427-1.6812,5.7784-2.0869,8.7377-4.1182-2.4495-11.3447-20.2025-10.3945-27.0882-3.7861-23.9749-10.0479-55.8683,8.8433-35.0295,34.2544-6.3679,4.2949-6.6152,10.4287-6.5948,16.4771.9738,4.6543,6.2028,7.3779,10.0181,10.0903-38.0201,39.4263,73.3748,38.8232,55.2258.0098-9.8647-21.4697-36.023-10.8462-53.3039-9.8853v-.0024c-6.1265-1.0332-6.6951-8.916-2.1417-13.6841,19.8441,12.0498,57.5833-6.1929,39.7666-31.627-.2672-1.1172-1.3408-1.0415-1.2419-1.3291.9915-2.8833,2.7155-4.0127,4.4659-5.0342ZM156.0629,587.6942c.3613-.2124,1.9625-1.3984,1.9628-1.3984,8.9804,2.1631,11.9175-.8784,21.0493-1.9663,4.3553-.519,7.8011-.313,10.7029-1.2256,2.9019-.9126,12.4778,2.4116,12.2239,7.3252-7.2765,14.3779-25.1457,10.8984-39.2833,12.0103-9.8326-.9858-18.8238-9.3369-6.6556-14.7451ZM171.1862,562.743c-12.0934,1.4956-15.2244-38.4868-4.1995-38.5337,11.3333-1.4814,14.5273,37.9082,4.1995,38.5337Z"/><path d="M250.3409,303.7142c15.8685-.0967,9.8395-23.6274-2.8278-23.7607-15.1001-.1953-9.865,23.9922,2.8278,23.7607Z"/><path d="M287.6488,573.7156c-.3101-17.647-4.433-33.0044-7.6276-50.166,4.3983-.1729,7.4724-.0337,11.8625-.1934-.1603-1.2368-1.0496-5.8677-1.2087-7.104-5.1707.4937-6.3879-.5635-10.7782-.3989-2.3929-9.2041-2.0181-15.7671-1.764-25.2651-10.4255,1.8955-15.1172,2.5566-25.7009,1.4224.0924.9448-.0137,1.6123.0791,2.5576,9.0731,1.73,7.8643,14.0659,9.8235,21.7222-4.5155.1865-7.9395.9702-12.4612,1.165.1296,1.2661.5469,6.3887.678,7.6553,4.5292-.2031,8.0526-.8354,12.5764-1.0312.9713,18.314,3.5122,34.3281,5.2166,52.5439,1.5559,9.4365,20.6748,3.5586,28.033,4.4629-.1533-1.0063-.1493-1.0459-.301-2.0498-3.6077-.4521-7.2461-2.1978-8.4274-5.3208Z"/><path d="M243.0648,316.619c.5763.8545.8906,1.8755.8405,2.9053-.2959,6.0728,2.3228,12.1543,2.8762,18.2681.6091,5.7456-.1438,11.6338.4535,17.3804-.197,7.6084,6.278,21.2246-2.9741,25.019.109,1.124-.3755,1.6367-.2665,2.7603,10.7617.3237,21.5073-.0205,32.2498-.4331-.1238-1.1045.252-1.4702.1276-2.5752-12.0095-1.8877-7.691-13.2231-8.444-21.7998-2.3414-15.5732-2.8706-31.3613-5.858-46.832-10.0054-.582-15.3341-1.3618-25.3054-1.9111.1149,1.061.4596,2.2139.5741,3.2749,2.4091.7837,4.3752,1.939,5.7264,3.9434Z"/><path d="M219.7287,377.3968c15.0089-11.207,18.2709-33.563,8.0895-49.1865-26.361-41.2441-78.9908-7.5894-55.5533,33.8765,9.7262,14.5049,31.3832,27.6636,47.4638,15.3101ZM187.8815,326.7542c.7148-6.8062,4.9559-14.7441,9.3463-13.3984,13.251,3.0601,16.1816,36.7461,12.8564,50.1963-1.2321,7.9414-2.9563,14.249-7.4097,14.1895-12.7737-2.5938-16.9478-39.0459-14.793-50.9873Z"/><path d="M101.2085,283.9305c4.8845,28.4297,1.5197,57.3906,2.5914,86.0566-.1832,3.8921-2.4661,3.5664-3.5471,6.1602-.6429,3.5044-.4953,2.9565.7444,6.7129.1171.3545.4589.5981.8324.5928,5.4514-.0806,9.3513-.9756,14.5999-1.2173,1.3316-.0615,2.3619-1.186,2.2759-2.5161l-.0031-.0469c-.0723-1.1187.0014-2.2368.097-3.3535.2089-2.439-1.7656-2.2026-1.8419-2.1924-8.5909-2.5962-3.1271-14.5703-4.2939-21.3667-.1827-12.5-.2711-31.8672-1.0328-46.5039,11.4532,24.0298,18.0428,50.1646,30.9092,73.3721.4626,1.0176,1.6445,1.1753,2.5933,1.7661,1.4601.9097,9.4978,4.8706,10.7625.895,1.3198-19.7622-1.7075-39.4185-2.382-58.9307-.0684-1.9771-.2875-3.9434-.6347-5.8906-1.9064-10.6929-2.5602-21.2363-2.0025-31.9604.0066-3.8237,3.9525-3.0312,4.892-5.6992.6876-3.0566,2.2089-6.6479-1.6219-7.5454-.3527-.0532-14.8898-.8882-16.7162,1.3428-.8184,3.0005-1.784,6.6167.8713,7.5146,10.384,2.2134,4.8113,15.0166,6.3062,22.6543,1.512,11.6035,2.5003,23.1309,2.8487,35.0391-4.7715-10.3833-8.5445-21.0869-12.1581-32.0186-2.2475-5.2974-6.5895-9.7578-8.8511-15.1401-2.2325-5.3125-2.9957-11.2188-5.2368-16.6021-2.0059-5.0601-16.0055-2.9868-21.6122-2.3062-2.2252.2705-2.4986.0308-2.4575,3.3848.23,3.6147-.8808,8.5669,4.0673,7.7988Z"/><path d="M94.9647,547.8343c-.2875-17.3188-8.9166-35.5967-26.938-39.8813-4.9952-2.3623-9.9632-5.1826-15.9275-5.0068-11.1609,1.7056-22.1737,1.5938-33.3384.166.0187,1.1191-.1124,3.3721-.0939,4.4907,10.8804.7637,5.1845,29.9668,6.5375,38.7744,2.0227,10.8574,2.7468,21.5781,1.6706,32.6172-.1027,8.9756,6.7991,19.9595-6.468,22.2788l.1269.7559c.0168.9961.308.0825.3248,1.0762,22.2139.2485,51.2671,7.1367,63.9243-16.5869,13.6761-13.6978,9.5849-21.5464,10.1818-38.6841ZM71.8044,578.0687c-4.1652,9.6367-11.458,19.6592-22.1824,21.9941-2.4024-12.1523-2.7183-23.3633-1.4185-35.6763-3.8314-18.5356-.3898-38.0664-2.3496-56.4248,18.7118-4.5474,25.5038,16.3315,27.0851,30.9683,1.2452,13.9595,5.3116,25.4683-1.1346,39.1387Z"/><path d="M137.9878,413.9046c-42.0217-22.0771-65.2458,38.0552-29.9547,59.8154,40.3228,20.8906,69.6447-37.1382,29.9547-59.8154ZM111.8277,427.4202c9.2477-40.146,30.288,12.2119,22.2984,32.0732-1.5881,6.0693-3.1011,15.5054-7.967,14.6997-13.4935-2.5391-15.7091-33.5933-14.3314-46.7729Z"/><path d="M116.0029,500.368c-15.2939.6606-14.2781,23.6377.9405,23.3071,14.7733-.7329,13.507-23.5918-.9405-23.3071Z"/><path d="M155.3507,411.6458c16.8447,6.5488,1.5674,48.1514,17.6232,57.6406,8.5098,8.2529,26.9771,7.1663,33.0666-2.8313.3136,3.0898.128,3.862.4448,6.9504,5.1091-.1699,8.6506,1.1509,12.4779,1.0249,3.8351-.126,7.4475-1.9224,12.5519-2.0859-.1157-.9927.437-1.6001.3218-2.5918-14.5662-3.5103-11.6686-47.4702-13.2744-61.2388-9.7981-.1606-15.1465.9497-24.9816.7886l.192,1.4702s.2761.0093.5383.1128c7.5824,3.4858,5.4453,14.4141,6.9192,21.3457.7532,9.8906,2.248,19.6812,3.9799,29.4321-6.9685,12.4741-18.9914,7.8193-21.4396-9.2314-1.5255-14.8799-.5377-29.9224-2.8685-44.7368-9.8978-.1616-15.34.5776-25.2299.4165.0758.9956-.3975,2.5381-.3215,3.5342Z"/><path d="M227.9977,494.2494c-15.9516,1.1672-12.2972,22.1678,2.528,21.1143,15.3345-1.4598,11.9798-22.1807-2.528-21.1143Z"/><path d="M18.4694,481.7616c10.8178-.1802,21.5966-1.0874,32.355-2.083-.0414-1.1147.4361-1.709.3947-2.8247-11.5612-1.7339-6.8588-15.3999-7.7219-23.5664-.1843-5.6294-.9303-8.5303-1.1143-14.1602,7.7159-.0659,12.7407-1.8965,20.5385-1.9814.2531,5.7534-.6092,10.5962-.3547,16.3496.1204,8.3057,7.618,20.9912-4.9655,23.2393.0455,1.1123.4142,2.5142.4599,3.6255,10.9785-1.3135,21.9258-1.7026,32.97-1.1396-.0646-1.0938-.1616-1.8193-.2265-2.9136-11.2154-2.2021-6.4281-15.3818-6.9298-23.439-.2974-5.4058-1.4254-10.7666-1.7213-16.1733.0013-10.8687-.7805-21.6406-2.1654-32.418.4189-7.5366-3.9766-20.1699,4.1269-24.3672.2807-.145.5161-.3696.6519-.6553l1.1382-2.3936c.0584-.123-.0289-.2656-.1649-.269l-2.4991-.0684s-.0027.0132-.0032.0151c-9.4646-.2764-19.7861.563-29.1519,1.5845.0453,1.1079-.0249.9961.0204,2.1045,11.0135,7.5464,8.5638,37.3325,7.9483,50.063-7.783.0728-11.91,1.272-19.6091,1.3276.9017-10.3379.7784-18.6357-.8494-28.8892.5364-7.3418-3.627-19.5264,6.052-21.9648-.0411-1.1113-.0704-1.4263-.4684-2.0581-5.0477-.0591-10.0508-2.8525-15.0982-2.9038-5.0472-.0522-10.2711.6436-15.3188.6001.0182,1.1177.0275,1.8267,1.0492,2.3491,10.1132,3.8457,4.9095,16.5889,5.2567,24.7412.116,5.6729.1714,11.3467.2867,17.019,2.7242,16.9316,1.6343,34.0112,1.9671,51.1104-1.8226,6.8276-5.5914.2949-6.853,10.1396Z"/></g></svg>