<?xml version="1.0" encoding="UTF-8"?><svg id="Layer_2" xmlns="http://www.w3.org/2000/svg" viewBox="0 0 690.3913 689.9689"><g id="Layer_1-2"><path d="M689.9373,594.1673c-8.1636-29.3516-5.0718-63.5576-5.6694-92.248-.0112-3.6113-12.3403-18.7295-13.2002-20.8291-9.4691-29.4813-16.6743-63.0426-15.3616-94.3699-.8251-16.4836-.6205-41.9964-9.2981-58.7211-16.0099-30.7122-36.2858-68.3744-75.0296-72.2798-11.9256-.888-28.4781-2.974-37.2708-6.3603-1.2053.531-.7909,4.7114-1.8201,6.4505.0004.0003-1.6964,5.8606-1.6964,5.8606-.1089.375-.5791.4971-.8521.2168-1.915-1.9639-7.7012-7.9453-7.8511-8.6377-4.1201-5.3799-4.0103-8.3096-15.54-16.6504-6.2815-4.5115-5.7745-3.0695-4.7384-.6985,2.1198,5.2034.8828,13.1991-.2842,17.6878-.5413,1.9309-4.2991-4.742-4.7216-4.8327-4.3756-2.221-16.597-35.3568-20.4209-22.088.0068.0237-3.4386,9.1903-3.436,9.2162-.6002,1.6013-3.6416-3.7559-4.0687-3.9076-9.0587-9.0444-13.9452-21.986-18.3414-33.4772-1.9389-2.9678-5.2275-9.0107-5.1091-13.7799-.0293-2.4106-6.2023-5.4152-9.2261-5.8176-12.2585-13.894-20.6317-32.8643-31.1445-48.9889-15.0994-35.019-20.6655-9.1735-11.3788-47.2458,1.5087-7.0805,1.0636-12.9427-2.1989-19.1494-1.9714-7.8778,1.0328-11.7246-1.6487-17.9281-5.8477-10.4219-4.155-33.0859-11.7329-43.5898-5.3661-9.4805-8.2341,17.49-5.9505,23.7894,3.0704,10.7907-11.9796,22.0211-11.8495,31.5807.1597,7.1992-10.8779,20.2598-17.582,10.2764-2.6597-5.8141-5.8922-16.0436-11.8224-18.9822-2.0624-7.3375,2.1558-55.4124-7.8962-44.8837-.4625,19.6426-1.9917,34.7793-5.9887,54.3871.3139,18.5918,1.4064,23.2805-14.2688,36.2035-4.2106,4.0917-7.0313,8.339-2.6929,13.5747-.823,4.2833,1.1259,10.2038-.0057,13.4038-6.8725,5.2998-20.0448,14.5703-23.6784,17.3867-1.0044.2193-3.0415.6536-6.0954,4.3632-3.0997,4.0206-.4996,2.8204.3403,6.2902.835,3.4492.1089,2.7295,2.8306,5.0283,6.4722,6.581,4.4326,12.6043,13.1997,18.3018,10.2834,7.0267,22.7814,6.4518,33.1215,1.0185,3.6718-1.9345,9.0556-2.1935,11.9564.6836,7.3518,10.6875,18.2244,26.669,22.8374,38.7989,1.9832,10.0226-.6374,21.0895,7.6353,30.0121-.61,20.7441-6.1005,45.7544-.4574,67.0474,2.63,20.1374,11.2957,40.925,19.7762,58.624,4.6868,12.0605,11.6848,13.3564,15.4631,31.7236,2.726,37.9254,9.4678,60.5077,18.712,97.0403,2.3632,21.8097,16.2976,92.8577-5.7801,100.2164-13.6629-2.664-18.42,6.0186-20.0743,10.6886-11.4749,2.6465-27.8086,6.4102-28.4141,6.5293-43.627,16.5413-86.4413,1.7232-131.0702,9.6644-24.9022,5.7628-48.9457,15.4227-74.6993,17.5512-19.1228,2.5686-38.8337,4.8665-58.2913,4.2742-12.8733.162-101.4281-7.712-96.9921,8.8359,10.1617,11.637,27.5974,19.9033,41.805,25.6895,18.9045,4.734,39.7258-2.9277,58.4433,2.7974,39.9353,16.3305,64.5514-5.5811,104.2742-5.2704,50.8599-5.1779,109.2458-2.7008,156.1598-1.9137,9.5787.1607,19.1474-.3293,28.6654-1.4183,24.0381-2.7501,48.3084-5.2155,71.8699-10.8732l-.0059-.0068c67.8486-12.6986,146.9467-31.7238,216.5076-52.4883,7.309-2.1792,14.3933-9.7359,12.0569-17.7763ZM352.7223,104.6849c-2.6364,10.9745-23.4114,6.4466-15.5723.6599.0007.0008,12.5984-3.6931,12.5984-3.6931,1.8042-.3867,3.4729,1.2568,2.9739,3.0332ZM427.4276,617.7965c-2.2726.6367-3.8768-2.2175-2.1428-3.8185,4.1822-3.8612,11.1071-8.4327,11.7326-11.3878h.0002c3.1684-11.3801,3.376-22.1407,4.2588-33.6808,6.6711-22.1395-2.4488-32.2001-5.1887-56.8397-2.2593-19.5049,1.9172-39.4385-.1482-58.8125-.2219-20.1461-5.339-40.8921-4.415-63.0518,4.9591-16.9241,25.3201,25.5857,26.2531,31.4746,6.6026,35.7158,16.5984,75.6543,20.1324,113.6641-.0678,17.3329-3.1463,34.7448-7.4963,51.5186,0,0-15.1687.0562-19.5073,18.1138-8.4387,5.6576-17.4501,11.1312-23.4787,12.8201ZM585.4476,573.2298c-3.327,4.6561-2.7409,13.6331-9.6185,16.8307-11.9912,2.7242-18.6317-4.4662-21.0795,12.9238-9.3697,5.2495-21.3744,12.1488-29.9553,13.1673-25.4964,2.6755-46.7394,13.9044-70.4815,19.2248-2.9834.1941-4.1203-3.8424-1.4657-5.217,3.2175-1.666,6.4006-3.3701,9.5573-5.0791.1191.0547.1885.0869.1885.0869,4.8915-2.1092,24.4412-15.4142,31.7424-19.9731,4.65-2.0069,2.0269-15.9869,2.0269-15.9869h-.0002c-6.5842-16.4202,8.4464-50.4281,4.1058-65.1984-1.8548-4.9779-5.5169-22.5155-8.4502-37.3631.6598-33.2304.7881-69.6338-1.448-92.2844,4.1801-2.0083,14.5374-7.8942,22.3382-10.072,5.3117.3452,16.8269-13.2382,17.57-4.6501,5.2103,29.7908-.0895,77.1501,28.2904,96.1208,34.5639,22.687,35.0456,61.3404,26.6797,97.4697ZM660.8589,590.7418c-3.6988,3.1878-10.1799,5.0205-8.8889,11.2272-21.5472,11.9944-40.1535,11.8784-40.855,6.0558-1.9512-2.5072-6.0738.0785-8.8047,1.9413-1.812.8281-12.6923,1.9874-13.8423-.9985.0006-.0005,3.3253-3.3472,3.3253-3.3472,7.167-3.4948,5.6566-9.152,6.7338-15.0814,2.9488-13.2907,4.0392-31.8864,7.9737-44.1969,1.5195-5.5635,8.0273-22.3614,5.139-31.014-4.7002-13.8108-12.5648-27.4035-19.7991-38.9767-3.0331-14.2207-8.3309-36.2028-3.3931-50.4614,3.0335-7.2064,4.1916-19.6111,9.2435-24.5161,5.2981-2.0342,6.0938,6.0692,6.156,11.0095,2.4025,19.295,1.1299,34.5124,8.9429,54.9306,4.4763,8.4181,2.7261,11.5575,8.308,25.5857,4.04,9.7002,3.9297,33.0801,10.2998,31.3701,3.1602-1.4004.9102-4.9404,1.0898-8.3506-.1842-27.7385-17.63-53.849-15.8004-81.9491.7804-16.2608,5.6808,3.8495,7.4606,6.8193,4.21,8.96,9.48,20.9004,14.5698,31.7207,2.7202,5.7598,6.1304,11.1396,9.79,16.3594,4.7686,6.8573,6.4252,20.0048,9.6692,26.1206,6.0327,10.2959,3.6019,35.0951,7.5602,47.0141,2.4306,8.8903.7302,21.0258-4.878,28.7376Z"/></g></svg>